<?xml version="1.0" encoding="utf-8"?>
<!-- Generator: Adobe Illustrator 22.0.1, SVG Export Plug-In . SVG Version: 6.00 Build 0)  -->
<svg version="1.1" id="Слой_1" xmlns="http://www.w3.org/2000/svg" xmlns:xlink="http://www.w3.org/1999/xlink" x="0px" y="0px"
	 viewBox="0 0 240 40" style="enable-background:new 0 0 240 40;" xml:space="preserve">
<style type="text/css">
	.st0{fill:#FFFFFF;}
</style>
<g>
	<g>
		<path class="st0" d="M103,27.2c-1,0.3-1.9,0.5-2.8,0.5c-1.6,0-2.9-0.3-4.1-0.9c-1.2-0.6-2.1-1.5-2.7-2.6c-0.6-1.1-1-2.3-1-3.7
			c0-1.7,0.3-3.1,1-4.3c0.7-1.2,1.6-2.1,2.7-2.7c1.2-0.6,2.4-0.9,3.8-0.9c0.8,0,1.7,0.1,2.4,0.3c0.8,0.2,1.4,0.5,2,0.8l-0.8,2.2
			c-0.4-0.2-0.9-0.5-1.6-0.6c-0.7-0.2-1.3-0.3-1.7-0.3c-1.7,0-3,0.5-4,1.4c-1,0.9-1.5,2.2-1.5,3.9c0,1,0.2,1.9,0.7,2.6
			c0.5,0.8,1.1,1.4,1.9,1.8c0.8,0.4,1.7,0.6,2.8,0.6c0.5,0,0.9,0,1.4-0.1c0.4-0.1,0.8-0.2,1.1-0.4v-2.4H100v-2.3h5.1v6
			C104.7,26.5,104,26.9,103,27.2z"/>
		<path class="st0" d="M118.8,27.5l-3.3-5.1h-0.2h-2.1v5.1h-2.4V12.8h4.1c1.6,0,3,0.4,4,1.3c1,0.8,1.5,2,1.5,3.5
			c0,0.9-0.2,1.7-0.6,2.5c-0.4,0.8-1,1.4-1.8,1.8l3.6,5.7H118.8z M113.1,20.1h2.1c0.9,0,1.6-0.3,2.1-0.8c0.4-0.5,0.6-1.1,0.6-1.7
			c0-0.4-0.1-0.8-0.2-1.1c-0.2-0.4-0.4-0.7-0.8-1c-0.4-0.3-0.9-0.4-1.5-0.4h-2.2V20.1z"/>
		<path class="st0" d="M136,12.8v2.3h-7.4V19h6.6v2.3h-6.6v4h7.7v2.3h-10V12.8H136z"/>
		<path class="st0" d="M149.2,24.1h-5.4l-1.4,3.5h-2.3l6.5-15.3h0.1l6.5,15.3h-2.7L149.2,24.1z M148.4,22l-1.8-4.6l-1.9,4.6H148.4z"
			/>
		<path class="st0" d="M165.4,12.8v2.3h-3.8v12.5h-2.3V15.1h-3.7v-2.3H165.4z"/>
		<path class="st0" d="M174.7,14.8c-0.7,0-1.3,0.2-1.7,0.5c-0.4,0.3-0.6,0.8-0.6,1.3c0,0.6,0.3,1,0.8,1.4c0.5,0.4,1.3,0.7,2.2,1.1
			c0.7,0.3,1.4,0.5,1.9,0.9c0.5,0.3,0.9,0.8,1.3,1.3c0.3,0.6,0.5,1.3,0.5,2.1c0,0.8-0.2,1.5-0.6,2.1c-0.4,0.6-1,1.1-1.7,1.5
			c-0.7,0.4-1.6,0.6-2.6,0.6c-0.9,0-1.8-0.1-2.6-0.4c-0.9-0.3-1.6-0.7-2.3-1.1l1.1-1.8c0.5,0.4,1.1,0.7,1.8,0.9
			c0.7,0.2,1.3,0.4,1.9,0.4c0.7,0,1.3-0.2,1.9-0.5c0.5-0.3,0.8-0.9,0.8-1.6c0-0.6-0.2-1-0.7-1.4c-0.5-0.4-1.1-0.7-1.9-1
			c-0.8-0.3-1.5-0.6-2.1-0.9c-0.6-0.3-1-0.7-1.4-1.3c-0.4-0.5-0.6-1.2-0.6-2.1c0-1.2,0.4-2.2,1.2-2.9c0.8-0.7,1.9-1.1,3.2-1.2
			c1,0,1.8,0.1,2.6,0.3c0.7,0.2,1.4,0.5,2.1,0.9l-0.9,1.8C176.9,15.1,175.7,14.8,174.7,14.8z"/>
		<path class="st0" d="M192.9,12.8v2.3h-3.8v12.5h-2.3V15.1h-3.7v-2.3H192.9z"/>
		<path class="st0" d="M207.7,12.8v2.3h-7.4V19h6.6v2.3h-6.6v4h7.7v2.3h-10V12.8H207.7z"/>
		<path class="st0" d="M225.2,12.8l-6.6,15.4L212,12.8h2.8l3.9,9.7l3.7-9.7H225.2z"/>
		<path class="st0" d="M239.7,12.8v2.3h-7.4V19h6.6v2.3h-6.6v4h7.7v2.3h-10V12.8H239.7z"/>
	</g>
	<path class="st0" d="M77.3,22.5C77.2,22.5,77.2,22.5,77.3,22.5l-0.2-0.1c0,0,0,0,0,0C68.8,19,60,16.7,50.7,15.8
		c1.8-5.3,6.9-9.2,12.9-9.2c6.7,0,12.3,4.9,13.4,11.3c1.1,0.3,2.2,0.6,3.3,1c-0.7-8.7-7.9-15.5-16.7-15.5c-7.6,0-14.1,5.1-16.1,12.1
		c-2.4-0.2-4.8-0.3-7.3-0.3c-9.9,0-19.4,1.5-28.4,4.2c0.3,1.1,0.9,2.1,1.7,2.8c5.4-1.6,11-2.7,16.8-3.3c0,0.4,0.1,0.9,0.1,1.3
		c0,7.5-6.1,13.6-13.6,13.6c-7.5,0-13.6-6.1-13.6-13.6c0-7.5,6.1-13.6,13.6-13.6c4.3,0,8.1,2,10.6,5.1c1.2-0.2,2.4-0.3,3.6-0.4
		c-3-4.7-8.2-7.8-14.2-7.8C7.5,3.4,0,10.9,0,20.2S7.5,37,16.8,37s16.8-7.5,16.8-16.8c0-0.5,0-1.1-0.1-1.6c2.2-0.2,4.4-0.2,6.7-0.2
		c12.7,0,24.9,2.5,36,7.1c0,0,0,0,0,0.1c0,0.1-0.1,0.2-0.2,0.3c-0.1,0.2-0.2,0.5-0.3,0.7c0,0.1-0.1,0.2-0.1,0.2
		c-0.1,0.3-0.3,0.5-0.5,0.8c0,0-0.1,0.1-0.1,0.1c-0.2,0.3-0.4,0.6-0.6,0.8c0,0,0,0,0,0c-0.5,0.6-1,1.1-1.5,1.6l0,0c0,0,0,0,0,0
		c-0.1,0.1-0.3,0.2-0.4,0.3c-0.2,0.2-0.4,0.3-0.6,0.4c-0.1,0.1-0.2,0.2-0.3,0.3c-0.1,0.1-0.3,0.2-0.4,0.3c-0.1,0.1-0.2,0.1-0.3,0.2
		c-0.2,0.1-0.5,0.3-0.7,0.4c-0.1,0.1-0.2,0.1-0.3,0.2c-0.2,0.1-0.4,0.2-0.6,0.3c-0.1,0-0.2,0.1-0.3,0.1c-0.3,0.1-0.6,0.2-0.8,0.3
		c-0.1,0-0.2,0-0.2,0.1c-0.2,0.1-0.5,0.1-0.7,0.2c-0.1,0-0.2,0-0.3,0.1c-0.3,0.1-0.6,0.1-0.9,0.2c0,0-0.1,0-0.1,0
		c-0.3,0-0.6,0.1-0.9,0.1c-0.1,0-0.2,0-0.3,0c-0.3,0-0.7,0-1,0c-0.4,0-0.8,0-1.2-0.1c-0.1,0-0.2,0-0.4,0c-0.3,0-0.5-0.1-0.8-0.1
		c-0.1,0-0.3-0.1-0.4-0.1c-0.2,0-0.5-0.1-0.7-0.2c-0.1,0-0.3-0.1-0.4-0.1c-0.2-0.1-0.4-0.1-0.6-0.2c-0.1-0.1-0.3-0.1-0.4-0.2
		c-0.2-0.1-0.4-0.2-0.6-0.2c-0.1-0.1-0.3-0.1-0.4-0.2c-0.2-0.1-0.4-0.2-0.6-0.3c-0.1-0.1-0.3-0.2-0.4-0.2c-0.2-0.1-0.4-0.2-0.5-0.3
		c-0.1-0.1-0.3-0.2-0.4-0.3c-0.2-0.1-0.3-0.2-0.5-0.4c-0.1-0.1-0.2-0.2-0.4-0.3c-0.2-0.1-0.3-0.3-0.5-0.4c-0.1-0.1-0.2-0.2-0.3-0.3
		c-0.1-0.1-0.3-0.3-0.4-0.5c-0.1-0.1-0.2-0.2-0.3-0.4c-0.1-0.2-0.3-0.3-0.4-0.5c-0.1-0.1-0.2-0.2-0.3-0.4c-0.1-0.2-0.2-0.3-0.4-0.5
		c-0.1-0.1-0.2-0.3-0.2-0.4c-0.1-0.2-0.2-0.4-0.3-0.6c-0.1-0.1-0.1-0.3-0.2-0.4c-0.1-0.2-0.2-0.4-0.3-0.6c-0.1-0.1-0.1-0.3-0.2-0.4
		c-0.1-0.2-0.2-0.4-0.2-0.6c0-0.1-0.1-0.3-0.1-0.4c-0.1-0.3-0.2-0.6-0.3-1C49.2,23.1,48.1,23,47,23c0,0.3,0.1,0.5,0.1,0.8
		c0,0,0,0,0,0c0.3,1.2,0.7,2.4,1.2,3.5c0,0,0,0,0,0c0.1,0.2,0.2,0.4,0.3,0.6c0,0,0,0.1,0.1,0.1c0.1,0.2,0.2,0.4,0.3,0.5
		c0,0,0,0.1,0.1,0.1c0.1,0.2,0.2,0.3,0.3,0.5c0,0,0.1,0.1,0.1,0.1c0.1,0.2,0.2,0.3,0.3,0.5c0,0.1,0.1,0.1,0.1,0.2
		c0.1,0.1,0.2,0.3,0.3,0.4c0,0.1,0.1,0.1,0.1,0.2c0.1,0.1,0.2,0.3,0.3,0.4c0,0.1,0.1,0.1,0.1,0.2c0.1,0.1,0.2,0.2,0.3,0.4
		c0.1,0.1,0.1,0.1,0.2,0.2c0.1,0.1,0.2,0.2,0.3,0.3c0.1,0.1,0.1,0.1,0.2,0.2c0.1,0.1,0.2,0.2,0.3,0.3c0.1,0.1,0.1,0.1,0.2,0.2
		c0.1,0.1,0.2,0.2,0.3,0.3c0.1,0.1,0.1,0.1,0.2,0.2c0.1,0.1,0.2,0.2,0.3,0.3c0.1,0.1,0.1,0.1,0.2,0.2c0.1,0.1,0.2,0.2,0.4,0.3
		c0.1,0.1,0.1,0.1,0.2,0.2c0.1,0.1,0.2,0.2,0.4,0.2c0.1,0.1,0.2,0.1,0.2,0.2c0.1,0.1,0.2,0.2,0.4,0.2c0.1,0,0.2,0.1,0.2,0.1
		c0.1,0.1,0.2,0.1,0.4,0.2c0.1,0,0.2,0.1,0.3,0.1c0.1,0.1,0.3,0.1,0.4,0.2c0.1,0,0.2,0.1,0.3,0.1c0.1,0.1,0.3,0.1,0.4,0.2
		c0.1,0,0.2,0.1,0.3,0.1c0.1,0.1,0.3,0.1,0.4,0.2c0.1,0,0.2,0.1,0.3,0.1c0.1,0,0.3,0.1,0.4,0.1c0.1,0,0.2,0.1,0.3,0.1
		c0.1,0,0.3,0.1,0.4,0.1c0.1,0,0.2,0.1,0.3,0.1c0.1,0,0.3,0.1,0.4,0.1c0.1,0,0.2,0,0.3,0.1c0.1,0,0.3,0.1,0.4,0.1
		c0.1,0,0.2,0,0.3,0.1c0.1,0,0.3,0,0.4,0.1c0.1,0,0.2,0,0.3,0c0.2,0,0.3,0,0.5,0.1c0.1,0,0.2,0,0.3,0c0.2,0,0.4,0,0.5,0
		c0.1,0,0.1,0,0.2,0c0.3,0,0.5,0,0.8,0c0,0,0,0,0,0c0,0,0,0,0,0c0.4,0,0.8,0,1.2-0.1c0.1,0,0.2,0,0.4,0c0.3,0,0.6-0.1,0.9-0.1
		c0.1,0,0.2,0,0.3-0.1c0.4-0.1,0.8-0.1,1.2-0.2c0,0,0,0,0.1,0c0.4-0.1,0.7-0.2,1.1-0.3c0.1,0,0.2-0.1,0.3-0.1
		c0.3-0.1,0.6-0.2,0.9-0.3c0.1,0,0.2-0.1,0.3-0.1c0.4-0.2,0.7-0.3,1.1-0.5c0,0,0.1,0,0.1,0c0.3-0.2,0.6-0.3,0.9-0.5
		c0.1-0.1,0.2-0.1,0.3-0.2c0.3-0.2,0.5-0.3,0.8-0.5c0.1,0,0.1-0.1,0.2-0.1c0.3-0.2,0.6-0.5,0.9-0.7c0,0,0,0,0.1,0
		c0.1-0.1,0.1-0.1,0.2-0.2l0,0c0,0,0.1-0.1,0.1-0.1c0.2-0.2,0.3-0.3,0.5-0.5c0.1-0.1,0.1-0.1,0.2-0.2c0.1-0.1,0.1-0.1,0.2-0.2
		c0.2-0.2,0.3-0.4,0.5-0.6c0,0,0.1-0.1,0.1-0.1c0.1-0.1,0.1-0.1,0.2-0.2c0.1-0.1,0.1-0.1,0.2-0.2c0.1-0.2,0.3-0.3,0.4-0.5
		c0,0,0,0,0,0c0.1-0.1,0.1-0.1,0.2-0.2c0.2-0.2,0.3-0.5,0.5-0.7c0.1-0.1,0.2-0.3,0.3-0.4c0.1-0.2,0.3-0.5,0.4-0.7
		c0.1-0.1,0.1-0.3,0.2-0.4c0.1-0.3,0.3-0.5,0.4-0.8c0.1-0.1,0.1-0.3,0.2-0.4c0.1-0.3,0.2-0.5,0.3-0.8c0-0.1,0.1-0.2,0.1-0.2
		c0,0,0,0,0,0c0.2-0.6,0.4-1.2,0.5-1.9L77.3,22.5z"/>
</g>
</svg>
